<mxfile host="app.diagrams.net" agent="Mozilla/5.0 (Windows NT 10.0; Win64; x64) AppleWebKit/537.36 (KHTML, like Gecko) Chrome/131.0.0.0 Safari/537.36" version="25.0.3">
  <diagram name="Page-1" id="9k-PcV3nmBi1KY_1PRyq">
    <mxGraphModel dx="3027" dy="746" grid="1" gridSize="10" guides="1" tooltips="1" connect="1" arrows="1" fold="1" page="1" pageScale="1" pageWidth="1100" pageHeight="850" math="0" shadow="0">
      <root>
        <mxCell id="0" />
        <mxCell id="1" parent="0" />
        <mxCell id="heAXyN-W0zy-wfGCT8yG-1" value="1.1" style="swimlane;html=1;fontStyle=0;childLayout=stackLayout;horizontal=1;startSize=26;fillColor=#e0e0e0;horizontalStack=0;resizeParent=1;resizeLast=0;collapsible=1;marginBottom=0;swimlaneFillColor=#ffffff;align=center;rounded=1;shadow=0;comic=0;labelBackgroundColor=none;strokeWidth=1;fontFamily=Verdana;fontSize=12" parent="1" vertex="1">
          <mxGeometry x="-190" y="150" width="160" height="110" as="geometry" />
        </mxCell>
        <mxCell id="heAXyN-W0zy-wfGCT8yG-2" value="&lt;span style=&quot;font-size: 18px;&quot;&gt;สร้างแบรนด์&lt;br&gt;โปรไฟล์&lt;/span&gt;" style="text;html=1;strokeColor=none;fillColor=none;spacingLeft=4;spacingRight=4;whiteSpace=wrap;overflow=hidden;rotatable=0;points=[[0,0.5],[1,0.5]];portConstraint=eastwest;align=center;" parent="heAXyN-W0zy-wfGCT8yG-1" vertex="1">
          <mxGeometry y="26" width="160" height="54" as="geometry" />
        </mxCell>
        <mxCell id="heAXyN-W0zy-wfGCT8yG-3" value="&lt;span style=&quot;font-size: 18px; text-wrap-mode: nowrap;&quot;&gt;ผู้ใช้&lt;/span&gt;" style="rounded=0;whiteSpace=wrap;html=1;" parent="1" vertex="1">
          <mxGeometry x="-500" y="260" width="120" height="60" as="geometry" />
        </mxCell>
        <mxCell id="heAXyN-W0zy-wfGCT8yG-8" value="" style="group" parent="1" vertex="1" connectable="0">
          <mxGeometry x="140" y="275" width="190" height="30" as="geometry" />
        </mxCell>
        <mxCell id="heAXyN-W0zy-wfGCT8yG-9" value="&lt;font style=&quot;font-size: 18px;&quot;&gt;D1&lt;/font&gt;" style="html=1;dashed=0;whiteSpace=wrap;shape=mxgraph.dfd.dataStoreID;align=left;spacingLeft=3;points=[[0,0],[0.5,0],[1,0],[0,0.5],[1,0.5],[0,1],[0.5,1],[1,1]];container=0;" parent="heAXyN-W0zy-wfGCT8yG-8" vertex="1">
          <mxGeometry width="190" height="30" as="geometry" />
        </mxCell>
        <mxCell id="heAXyN-W0zy-wfGCT8yG-10" value="&lt;font style=&quot;font-size: 18px; font-weight: normal;&quot;&gt;ผู้ใช้&lt;/font&gt;" style="text;strokeColor=none;fillColor=none;html=1;fontSize=24;fontStyle=1;verticalAlign=middle;align=center;container=0;" parent="heAXyN-W0zy-wfGCT8yG-8" vertex="1">
          <mxGeometry x="28.5" width="95" height="30" as="geometry" />
        </mxCell>
        <mxCell id="heAXyN-W0zy-wfGCT8yG-11" value="" style="endArrow=classic;html=1;rounded=0;entryX=0;entryY=0.242;entryDx=0;entryDy=0;entryPerimeter=0;edgeStyle=orthogonalEdgeStyle;exitX=0;exitY=0.242;exitDx=0;exitDy=0;exitPerimeter=0;" parent="heAXyN-W0zy-wfGCT8yG-8" source="heAXyN-W0zy-wfGCT8yG-9" edge="1">
          <mxGeometry width="50" height="50" relative="1" as="geometry">
            <mxPoint x="111.28000000000003" y="35" as="sourcePoint" />
            <mxPoint x="-169" y="-65" as="targetPoint" />
            <Array as="points">
              <mxPoint x="-85" y="7" />
              <mxPoint x="-85" y="-65" />
              <mxPoint x="-169" y="-65" />
            </Array>
          </mxGeometry>
        </mxCell>
        <mxCell id="heAXyN-W0zy-wfGCT8yG-13" value="รายงานรายละเอียด&lt;div&gt;แบรนด์โปรไฟล์&lt;/div&gt;" style="edgeLabel;html=1;align=center;verticalAlign=middle;resizable=0;points=[];" parent="1" vertex="1" connectable="0">
          <mxGeometry x="40.00189908040559" y="243.9961584421951" as="geometry">
            <mxPoint x="1" y="-1" as="offset" />
          </mxGeometry>
        </mxCell>
        <mxCell id="heAXyN-W0zy-wfGCT8yG-16" value="1.2" style="swimlane;html=1;fontStyle=0;childLayout=stackLayout;horizontal=1;startSize=26;fillColor=#e0e0e0;horizontalStack=0;resizeParent=1;resizeLast=0;collapsible=1;marginBottom=0;swimlaneFillColor=#ffffff;align=center;rounded=1;shadow=0;comic=0;labelBackgroundColor=none;strokeWidth=1;fontFamily=Verdana;fontSize=12" parent="1" vertex="1">
          <mxGeometry x="-190" y="330" width="160" height="110" as="geometry" />
        </mxCell>
        <mxCell id="heAXyN-W0zy-wfGCT8yG-17" value="&lt;span style=&quot;font-size: 18px;&quot;&gt;แก้ไขแบรนด์&lt;br&gt;โปรไฟล์&lt;/span&gt;" style="text;html=1;strokeColor=none;fillColor=none;spacingLeft=4;spacingRight=4;whiteSpace=wrap;overflow=hidden;rotatable=0;points=[[0,0.5],[1,0.5]];portConstraint=eastwest;align=center;" parent="heAXyN-W0zy-wfGCT8yG-16" vertex="1">
          <mxGeometry y="26" width="160" height="54" as="geometry" />
        </mxCell>
        <mxCell id="heAXyN-W0zy-wfGCT8yG-34" value="" style="endArrow=classic;html=1;rounded=0;exitX=0.999;exitY=0.656;exitDx=0;exitDy=0;entryX=0.003;entryY=0.172;entryDx=0;entryDy=0;entryPerimeter=0;edgeStyle=orthogonalEdgeStyle;exitPerimeter=0;" parent="1" edge="1">
          <mxGeometry width="50" height="50" relative="1" as="geometry">
            <mxPoint x="-380.0000000000001" y="280" as="sourcePoint" />
            <mxPoint x="-189.88" y="380.64" as="targetPoint" />
            <Array as="points">
              <mxPoint x="-269.88" y="299.64" />
              <mxPoint x="-269.88" y="380.64" />
            </Array>
          </mxGeometry>
        </mxCell>
        <mxCell id="heAXyN-W0zy-wfGCT8yG-35" value="ข้อมูลผู้ใช้,&lt;div&gt;โลโก้,บริษัท&lt;/div&gt;" style="edgeLabel;html=1;align=center;verticalAlign=middle;resizable=0;points=[];rotation=0;" parent="heAXyN-W0zy-wfGCT8yG-34" vertex="1" connectable="0">
          <mxGeometry x="-0.0639" y="2" relative="1" as="geometry">
            <mxPoint x="8" y="34" as="offset" />
          </mxGeometry>
        </mxCell>
        <mxCell id="heAXyN-W0zy-wfGCT8yG-39" value="" style="endArrow=classic;html=1;rounded=0;exitX=1.017;exitY=0.18;exitDx=0;exitDy=0;exitPerimeter=0;entryX=-0.009;entryY=0.711;entryDx=0;entryDy=0;entryPerimeter=0;edgeStyle=orthogonalEdgeStyle;" parent="1" edge="1">
          <mxGeometry width="50" height="50" relative="1" as="geometry">
            <mxPoint x="-30" y="380" as="sourcePoint" />
            <mxPoint x="142.03999999999996" y="296.33000000000004" as="targetPoint" />
            <Array as="points">
              <mxPoint x="53.75" y="381" />
              <mxPoint x="53.75" y="296" />
            </Array>
          </mxGeometry>
        </mxCell>
        <mxCell id="heAXyN-W0zy-wfGCT8yG-40" value="ข้อมูลผู้ใช้" style="edgeLabel;html=1;align=center;verticalAlign=middle;resizable=0;points=[];" parent="1" vertex="1" connectable="0">
          <mxGeometry x="50.00189908040559" y="339.9961584421951" as="geometry" />
        </mxCell>
        <mxCell id="N6uQ74wv0lKxJs-jWLbe-1" value="" style="endArrow=classic;html=1;rounded=0;exitX=0.102;exitY=0.997;exitDx=0;exitDy=0;exitPerimeter=0;edgeStyle=orthogonalEdgeStyle;" edge="1" parent="1" source="heAXyN-W0zy-wfGCT8yG-9" target="heAXyN-W0zy-wfGCT8yG-17">
          <mxGeometry width="50" height="50" relative="1" as="geometry">
            <mxPoint x="160" y="310" as="sourcePoint" />
            <mxPoint x="-10" y="403.7" as="targetPoint" />
            <Array as="points">
              <mxPoint x="159" y="320" />
              <mxPoint x="74" y="320" />
              <mxPoint x="74" y="405" />
            </Array>
          </mxGeometry>
        </mxCell>
        <mxCell id="N6uQ74wv0lKxJs-jWLbe-2" value="รายงานรายละเอียด&lt;div&gt;แบรนด์โปรไฟล์&lt;/div&gt;" style="edgeLabel;html=1;align=center;verticalAlign=middle;resizable=0;points=[];" vertex="1" connectable="0" parent="N6uQ74wv0lKxJs-jWLbe-1">
          <mxGeometry x="0.0153" relative="1" as="geometry">
            <mxPoint x="26" as="offset" />
          </mxGeometry>
        </mxCell>
        <mxCell id="N6uQ74wv0lKxJs-jWLbe-7" value="" style="endArrow=classic;html=1;rounded=0;edgeStyle=orthogonalEdgeStyle;exitX=-0.014;exitY=0.82;exitDx=0;exitDy=0;exitPerimeter=0;entryX=1;entryY=1;entryDx=0;entryDy=0;" edge="1" parent="1" target="heAXyN-W0zy-wfGCT8yG-3">
          <mxGeometry width="50" height="50" relative="1" as="geometry">
            <mxPoint x="-190" y="406.28" as="sourcePoint" />
            <mxPoint x="-370" y="320" as="targetPoint" />
            <Array as="points">
              <mxPoint x="-228" y="406" />
              <mxPoint x="-300" y="406" />
              <mxPoint x="-300" y="320" />
            </Array>
          </mxGeometry>
        </mxCell>
        <mxCell id="N6uQ74wv0lKxJs-jWLbe-8" value="รายงานรายละเอียด&lt;div&gt;แบรนด์โปรไฟล์&lt;/div&gt;" style="edgeLabel;html=1;align=center;verticalAlign=middle;resizable=0;points=[];" vertex="1" connectable="0" parent="N6uQ74wv0lKxJs-jWLbe-7">
          <mxGeometry x="0.0153" relative="1" as="geometry">
            <mxPoint x="-20" y="-5" as="offset" />
          </mxGeometry>
        </mxCell>
        <mxCell id="N6uQ74wv0lKxJs-jWLbe-9" value="" style="endArrow=classic;html=1;rounded=0;exitX=1;exitY=0.25;exitDx=0;exitDy=0;edgeStyle=orthogonalEdgeStyle;" edge="1" parent="1">
          <mxGeometry width="50" height="50" relative="1" as="geometry">
            <mxPoint x="-380" y="265" as="sourcePoint" />
            <mxPoint x="-190" y="181" as="targetPoint" />
            <Array as="points">
              <mxPoint x="-380" y="260" />
              <mxPoint x="-300" y="260" />
              <mxPoint x="-300" y="181" />
              <mxPoint x="-190" y="181" />
            </Array>
          </mxGeometry>
        </mxCell>
        <mxCell id="N6uQ74wv0lKxJs-jWLbe-10" value="ข้อมูลผู้ใช้,&lt;div&gt;โลโก้,บริษัท&lt;/div&gt;" style="edgeLabel;html=1;align=center;verticalAlign=middle;resizable=0;points=[];rotation=0;" vertex="1" connectable="0" parent="N6uQ74wv0lKxJs-jWLbe-9">
          <mxGeometry x="-0.0639" y="2" relative="1" as="geometry">
            <mxPoint x="2" y="-16" as="offset" />
          </mxGeometry>
        </mxCell>
        <mxCell id="heAXyN-W0zy-wfGCT8yG-4" value="" style="endArrow=classic;html=1;rounded=0;edgeStyle=orthogonalEdgeStyle;" parent="1" source="heAXyN-W0zy-wfGCT8yG-2" target="heAXyN-W0zy-wfGCT8yG-3" edge="1">
          <mxGeometry width="50" height="50" relative="1" as="geometry">
            <mxPoint x="-189.51999999999998" y="194.2879999999999" as="sourcePoint" />
            <mxPoint x="-380" y="284" as="targetPoint" />
            <Array as="points">
              <mxPoint x="-270" y="210" />
              <mxPoint x="-270" y="279" />
            </Array>
          </mxGeometry>
        </mxCell>
        <mxCell id="heAXyN-W0zy-wfGCT8yG-5" value="รายงานรายละเอียด&lt;div&gt;แบรนด์โปรไฟล์&lt;/div&gt;" style="edgeLabel;html=1;align=center;verticalAlign=middle;resizable=0;points=[];rotation=0;" parent="heAXyN-W0zy-wfGCT8yG-4" vertex="1" connectable="0">
          <mxGeometry x="-0.0639" y="2" relative="1" as="geometry">
            <mxPoint x="18" y="-8" as="offset" />
          </mxGeometry>
        </mxCell>
        <mxCell id="N6uQ74wv0lKxJs-jWLbe-11" value="" style="endArrow=classic;html=1;rounded=0;entryX=0.091;entryY=-0.005;entryDx=0;entryDy=0;entryPerimeter=0;edgeStyle=orthogonalEdgeStyle;" edge="1" parent="1" target="heAXyN-W0zy-wfGCT8yG-9">
          <mxGeometry width="50" height="50" relative="1" as="geometry">
            <mxPoint x="-29" y="182" as="sourcePoint" />
            <mxPoint x="140" y="254" as="targetPoint" />
            <Array as="points">
              <mxPoint x="80" y="182" />
              <mxPoint x="80" y="254" />
              <mxPoint x="157" y="254" />
            </Array>
          </mxGeometry>
        </mxCell>
        <mxCell id="N6uQ74wv0lKxJs-jWLbe-12" value="ข้อมูลผู้ใช้" style="edgeLabel;html=1;align=center;verticalAlign=middle;resizable=0;points=[];" vertex="1" connectable="0" parent="N6uQ74wv0lKxJs-jWLbe-11">
          <mxGeometry x="0.0232" relative="1" as="geometry">
            <mxPoint x="10" y="-10" as="offset" />
          </mxGeometry>
        </mxCell>
      </root>
    </mxGraphModel>
  </diagram>
</mxfile>
